<svg width="12" height="18" viewBox="0 0 12 18" fill="none" xmlns="http://www.w3.org/2000/svg">
<path d="M5.99935 8.58333C5.44682 8.58333 4.91691 8.36384 4.52621 7.97314C4.13551 7.58244 3.91602 7.05253 3.91602 6.5C3.91602 5.94746 4.13551 5.41756 4.52621 5.02686C4.91691 4.63616 5.44682 4.41666 5.99935 4.41666C6.55188 4.41666 7.08179 4.63616 7.47249 5.02686C7.86319 5.41756 8.08268 5.94746 8.08268 6.5C8.08268 6.77358 8.0288 7.04449 7.9241 7.29725C7.8194 7.55002 7.66594 7.77968 7.47249 7.97314C7.27903 8.16659 7.04937 8.32005 6.79661 8.42475C6.54385 8.52944 6.27294 8.58333 5.99935 8.58333ZM5.99935 0.666664C4.45225 0.666664 2.96852 1.28125 1.87456 2.37521C0.780597 3.46917 0.166016 4.9529 0.166016 6.5C0.166016 10.875 5.99935 17.3333 5.99935 17.3333C5.99935 17.3333 11.8327 10.875 11.8327 6.5C11.8327 4.9529 11.2181 3.46917 10.1241 2.37521C9.03018 1.28125 7.54645 0.666664 5.99935 0.666664Z" fill="#64717D"/>
</svg>
