<svg width="14" height="16" viewBox="0 0 14 16" fill="none" xmlns="http://www.w3.org/2000/svg">
<path d="M7.00065 0.5C8.84232 0.5 10.334 1.99167 10.334 3.83333C10.334 5.675 8.84232 7.16667 7.00065 7.16667C5.15898 7.16667 3.66732 5.675 3.66732 3.83333C3.66732 1.99167 5.15898 0.5 7.00065 0.5ZM10.334 9.28333C10.334 10.1667 10.1007 12.225 8.50899 14.525L7.83398 10.5L8.61732 8.93333C8.10065 8.875 7.55898 8.83333 7.00065 8.83333C6.44232 8.83333 5.90065 8.875 5.38399 8.93333L6.16732 10.5L5.49232 14.525C3.90065 12.225 3.66732 10.1667 3.66732 9.28333C1.67565 9.86667 0.333984 10.9167 0.333984 12.1667V15.5H13.6673V12.1667C13.6673 10.9167 12.334 9.86667 10.334 9.28333Z" fill="#64717D"/>
</svg>
