<svg width="58" height="16" viewBox="0 0 58 16" fill="none" xmlns="http://www.w3.org/2000/svg">
<path fill-rule="evenodd" clip-rule="evenodd" d="M6.07647 4.17202C6.90633 4.17061 7.73223 4.28643 8.52969 4.51606V0H10.6164V12.2647C10.6164 13.1353 10.2724 15.9789 5.89392 15.9789C3.99116 15.9789 0.827393 15.1996 0.827393 9.92663C0.827393 5.18167 3.69346 4.17202 6.07647 4.17202ZM5.89392 14.1211C7.63659 14.1211 8.52969 13.5482 8.52969 12.4023V6.50447C7.75134 6.18513 6.91779 6.02195 6.07647 6.02422C4.44895 6.02422 2.9141 6.50448 2.9141 9.92101C2.9141 13.6409 4.49529 14.1211 5.89392 14.1211ZM42.9394 9.92663C42.9394 15.1996 39.7756 15.9789 37.8728 15.9789C33.4944 15.9789 33.1504 13.1353 33.1504 12.2647V0H35.2315V4.51606C36.0289 4.28662 36.8548 4.1708 37.6847 4.17202C40.0733 4.17202 42.9394 5.18167 42.9394 9.92663ZM40.833 9.92663C40.833 6.51009 39.3192 6.02984 37.6917 6.02984C36.848 6.02679 36.012 6.18998 35.2315 6.51009V12.4079C35.2315 13.5538 36.126 14.1267 37.8686 14.1267C39.2476 14.1211 40.8302 13.6409 40.8302 9.92663H40.833ZM46.3769 15.795V0H44.2706V15.795H46.3769ZM57.2206 13.3404V15.2431C56.1421 15.7023 54.7898 16 53.1623 16C50.7554 16 47.8893 14.9918 47.8893 10.2229C47.8893 8.73302 47.8893 4.17062 52.9559 4.17062C56.0284 4.17062 57.9999 6.34861 57.9999 9.69634C57.9999 10.2454 57.976 10.7734 57.9311 11.2775H50.0449C50.365 13.6647 51.7636 14.1885 53.2746 14.1885C54.9738 14.1899 56.2572 13.8473 57.2206 13.3404ZM50.0224 9.37617H55.8907C55.7756 8.04634 55.2251 6.05231 52.9559 6.05231C51.0306 6.05231 50.2049 6.92295 50.0224 9.37617ZM29.8574 5.27014C30.4125 5.6755 30.8507 6.28401 31.1718 7.09566C31.4938 7.90638 31.6567 8.89263 31.6604 10.0544C31.6595 11.2078 31.4985 12.1907 31.1774 13.0033C30.8563 13.8159 30.4182 14.4244 29.863 14.8289C29.3497 15.2114 28.7738 15.5017 28.1611 15.6868C26.9142 16.022 25.601 16.022 24.3541 15.6868C23.7731 15.5117 23.2254 15.2407 22.7336 14.885C22.9877 14.6164 23.2062 14.3162 23.3838 13.9919C23.5443 13.7295 23.6672 13.4459 23.7489 13.1494C23.822 13.2353 23.9028 13.3143 23.9904 13.3853C24.288 13.6327 24.6344 13.8146 25.0071 13.9189C25.8275 14.0968 26.6765 14.0968 27.4968 13.9189C27.8695 13.8146 28.216 13.6327 28.5135 13.3853C28.8477 13.1185 29.0991 12.7084 29.2676 12.1552C29.4519 11.4687 29.5366 10.7593 29.519 10.0488C29.5364 9.33826 29.4517 8.6289 29.2676 7.94242C29.0991 7.39009 28.8477 6.98051 28.5135 6.71371C28.2156 6.46643 27.8693 6.28419 27.4968 6.17869C26.6765 6.00083 25.8275 6.00083 25.0071 6.17869C24.637 6.28365 24.2927 6.46441 23.9961 6.70949C23.6609 6.9763 23.41 7.38587 23.2434 7.93821C23.0599 8.61908 22.9753 9.32278 22.992 10.0277C22.985 10.1597 22.8811 11.9501 22.5862 12.7927C22.4296 13.2522 22.2052 13.6857 21.9206 14.079C21.7167 14.3631 21.4699 14.6137 21.189 14.8218C20.6737 15.2056 20.0953 15.4964 19.48 15.6812C18.2332 16.0164 16.9199 16.0164 15.6731 15.6812C15.0603 15.4961 14.4844 15.2058 13.9711 14.8232C13.4169 14.4151 12.9788 13.8066 12.6568 12.9977C12.3347 12.1889 12.1737 11.2059 12.1737 10.0488C12.1737 8.89731 12.3347 7.91434 12.6568 7.09988C12.9788 6.28541 13.4169 5.6769 13.9711 5.27435C14.4848 4.89477 15.0607 4.60774 15.6731 4.42619C16.9197 4.08918 18.2334 4.08918 19.48 4.42619C20.0609 4.60109 20.6086 4.8716 21.1005 5.22661C20.8464 5.49188 20.6261 5.78762 20.4447 6.10707C20.2842 6.36927 20.1617 6.65296 20.081 6.94962C20.0075 6.86363 19.9262 6.78465 19.8381 6.71371C19.5402 6.46643 19.1939 6.28419 18.8214 6.17869C18.4134 6.08259 17.995 6.03778 17.5758 6.04529C17.1572 6.03785 16.7392 6.08267 16.3317 6.17869C15.9592 6.28419 15.6129 6.46643 15.315 6.71371C14.9808 6.98051 14.7294 7.39009 14.5609 7.94242C14.3768 8.6289 14.2921 9.33826 14.3096 10.0488C14.2919 10.7593 14.3766 11.4687 14.5609 12.1552C14.7294 12.7084 14.9808 13.1185 15.315 13.3853C15.6126 13.6327 15.959 13.8146 16.3317 13.9189C16.7392 14.0149 17.1572 14.0597 17.5758 14.0523C17.995 14.0598 18.4134 14.015 18.8214 13.9189C19.1941 13.8146 19.5405 13.6327 19.8381 13.3853C20.1732 13.1185 20.4241 12.7084 20.5908 12.1552C20.7735 11.4775 20.8581 10.7772 20.8421 10.0755C20.8421 10.0755 20.9432 8.17272 21.2493 7.30209C21.4059 6.84152 21.6297 6.40665 21.9136 6.01158C22.1176 5.72761 22.365 5.47742 22.6466 5.27014C23.1595 4.88708 23.7355 4.59671 24.3485 4.41215C25.5951 4.07514 26.9088 4.07514 28.1554 4.41215C28.7684 4.59671 29.3444 4.88708 29.8574 5.27014Z" fill="#2C303A"/>
</svg>
