<svg width="19" height="19" viewBox="0 0 19 19" fill="none" xmlns="http://www.w3.org/2000/svg">
<path d="M2.90234 4.86328H2.87695C1.56934 4.86328 0.723633 3.96313 0.723633 2.83813C0.723633 1.68774 1.59521 0.8125 2.92822 0.8125C4.26123 0.8125 5.08154 1.68774 5.10693 2.83813C5.10693 3.96313 4.26123 4.86328 2.90234 4.86328Z" fill="white"/>
<path d="M4.85059 18.1875H0.953857V6.46411H4.85059V18.1875Z" fill="white"/>
<path d="M18.9014 18.1875H15.0051V11.9158C15.0051 10.3396 14.4409 9.26465 13.031 9.26465C11.9546 9.26465 11.3135 9.98975 11.0317 10.6897C10.9287 10.9402 10.9036 11.2903 10.9036 11.6406V18.1875H7.00708C7.00708 18.1875 7.05811 7.56396 7.00708 6.46411H10.9036V8.12402C11.4214 7.3252 12.3479 6.18896 14.4153 6.18896C16.979 6.18896 18.9014 7.8645 18.9014 11.4653V18.1875Z" fill="white"/>
</svg>
