<svg width="48" height="48" viewBox="0 0 48 48" fill="none" xmlns="http://www.w3.org/2000/svg">
<path fill-rule="evenodd" clip-rule="evenodd" d="M34.8273 18.5391L24.1513 16.2973L16.8751 24.2803L20.2551 34.5564L30.8915 36.7898L38.1947 28.7772L34.8273 18.5391ZM20.6023 35.648L31.2514 37.8841L39.3281 29.0227L35.5981 17.6823L23.7914 15.2031L15.7161 24.0629H4.48005L0.67186 35.6411L10.6418 42.7969L20.6023 35.648ZM19.4029 35.2779L10.6418 41.566L1.85105 35.2566L5.20385 25.0629H16.0431L19.4029 35.2779Z" fill="#E8EBED"/>
<path fill-rule="evenodd" clip-rule="evenodd" d="M37.7344 29.3503L38.1965 28.8371L38.0538 28.3981L47.1383 30.5295L46.9099 31.5031L37.7344 29.3503ZM23.3958 17.1157L22.6333 17.9625L18.6348 6.5762L19.5783 6.24486L23.3958 17.1157ZM26.4311 16.7047L25.2858 16.4613L21.4653 5.58219L22.4088 5.25085L26.4311 16.7047Z" fill="#E8EBED"/>
</svg>
