<svg width="21" height="17" viewBox="0 0 21 17" fill="none" xmlns="http://www.w3.org/2000/svg">
<path d="M20.96 2C20.19 2.35 19.36 2.58 18.5 2.69C19.38 2.16 20.06 1.32 20.38 0.31C19.55 0.81 18.63 1.16 17.66 1.36C16.87 0.5 15.76 0 14.5 0C12.15 0 10.23 1.92 10.23 4.29C10.23 4.63 10.27 4.96 10.34 5.27C6.78004 5.09 3.61004 3.38 1.50004 0.79C1.13004 1.42 0.920039 2.16 0.920039 2.94C0.920039 4.43 1.67004 5.75 2.83004 6.5C2.12004 6.5 1.46004 6.3 0.880039 6C0.880039 6 0.880039 6 0.880039 6.03C0.880039 8.11 2.36004 9.85 4.32004 10.24C3.96004 10.34 3.58004 10.39 3.19004 10.39C2.92004 10.39 2.65004 10.36 2.39004 10.31C2.93004 12 4.50004 13.26 6.39004 13.29C4.93004 14.45 3.08004 15.13 1.06004 15.13C0.720039 15.13 0.380039 15.11 0.0400391 15.07C1.94004 16.29 4.20004 17 6.62004 17C14.5 17 18.83 10.46 18.83 4.79C18.83 4.6 18.83 4.42 18.82 4.23C19.66 3.63 20.38 2.87 20.96 2Z" fill="#005FCC"/>
</svg>
