<svg width="25" height="24" viewBox="0 0 25 24" fill="none" xmlns="http://www.w3.org/2000/svg">
<path fill-rule="evenodd" clip-rule="evenodd" d="M12.5498 3.67C14.7498 3.67 16.8098 4.53 18.3698 6.09C19.9198 7.65 20.7798 9.72 20.7798 11.92C20.7798 16.46 17.0798 20.15 12.5398 20.15C11.0598 20.15 9.60981 19.76 8.3498 19L8.0498 18.83L4.9298 19.65L5.7598 16.61L5.5598 16.29C4.7398 15 4.2998 13.47 4.2998 11.91C4.3098 7.37 7.9998 3.67 12.5498 3.67ZM8.3698 7.64C8.5998 7.39 8.8698 7.33 9.0298 7.33C9.1998 7.33 9.3598 7.34 9.4998 7.34C9.6598 7.35 9.85981 7.29 10.0598 7.77C10.2698 8.26 10.7698 9.5 10.8298 9.61C10.8898 9.73 10.9298 9.87 10.8498 10.04C10.7698 10.2 10.7298 10.31 10.5998 10.45C10.4998 10.6 10.3398 10.78 10.2298 10.89C10.1098 11 9.9998 11.15 10.1198 11.39C10.2698 11.64 10.7598 12.45 11.4998 13.11C12.4398 13.95 13.2398 14.21 13.4998 14.34C13.7398 14.46 13.8798 14.44 14.0298 14.27C14.1698 14.11 14.6498 13.55 14.8098 13.3C14.9998 13.06 15.1398 13.1 15.3698 13.18C15.5898 13.26 16.8098 13.86 17.0598 14C17.3098 14.11 17.4698 14.17 17.5398 14.27C17.5998 14.38 17.5998 14.87 17.3898 15.45C17.1798 16.03 16.1998 16.56 15.7198 16.63C15.2898 16.69 14.7498 16.72 14.1598 16.53C13.7998 16.42 13.3398 16.27 12.7498 16C10.2598 14.94 8.6398 12.44 8.4998 12.27C8.3898 12.1 7.4998 10.93 7.4998 9.71C7.4998 8.5 8.1498 7.89 8.3698 7.64Z" fill="#005FCC"/>
<path fill-rule="evenodd" clip-rule="evenodd" d="M2.6298 11.91C2.6298 6.45 7.0798 2 12.5398 2C15.1898 2 17.6798 3.03 19.5498 4.91C21.4198 6.78 22.4498 9.27 22.4498 11.92C22.4498 17.38 17.9998 21.83 12.5398 21.83C10.8798 21.83 9.2498 21.41 7.7998 20.62L2.5498 22L3.9498 16.86C3.0898 15.36 2.6298 13.66 2.6298 11.91ZM18.3698 6.09C16.8098 4.53 14.7498 3.67 12.5498 3.67C7.9998 3.67 4.3098 7.37 4.2998 11.91C4.2998 13.47 4.7398 15 5.5598 16.29L5.7598 16.61L4.9298 19.65L8.0498 18.83L8.3498 19C9.60981 19.76 11.0598 20.15 12.5398 20.15C17.0798 20.15 20.7798 16.46 20.7798 11.92C20.7798 9.72 19.9198 7.65 18.3698 6.09Z" fill="#005FCC"/>
</svg>
