<svg width="21" height="20" viewBox="0 0 21 20" fill="none" xmlns="http://www.w3.org/2000/svg">
<path fill-rule="evenodd" clip-rule="evenodd" d="M10.5498 1.67C12.7498 1.67 14.8098 2.53 16.3698 4.09C17.9198 5.65 18.7798 7.72 18.7798 9.92C18.7798 14.46 15.0798 18.15 10.5398 18.15C9.0598 18.15 7.60981 17.76 6.3498 17L6.0498 16.83L2.9298 17.65L3.7598 14.61L3.5598 14.29C2.7398 13 2.2998 11.47 2.2998 9.91C2.3098 5.37 5.9998 1.67 10.5498 1.67ZM6.3698 5.64C6.5998 5.39 6.8698 5.33 7.0298 5.33C7.1998 5.33 7.3598 5.34 7.4998 5.34C7.6598 5.35 7.85981 5.29 8.0598 5.77C8.2698 6.26 8.7698 7.5 8.8298 7.61C8.8898 7.73 8.9298 7.87 8.8498 8.04C8.7698 8.2 8.7298 8.31 8.5998 8.45C8.4998 8.6 8.3398 8.78 8.2298 8.89C8.1098 9 7.9998 9.15 8.1198 9.39C8.2698 9.64 8.7598 10.45 9.4998 11.11C10.4398 11.95 11.2398 12.21 11.4998 12.34C11.7398 12.46 11.8798 12.44 12.0298 12.27C12.1698 12.11 12.6498 11.55 12.8098 11.3C12.9998 11.06 13.1398 11.1 13.3698 11.18C13.5898 11.26 14.8098 11.86 15.0598 12C15.3098 12.11 15.4698 12.17 15.5398 12.27C15.5998 12.38 15.5998 12.87 15.3898 13.45C15.1798 14.03 14.1998 14.56 13.7198 14.63C13.2898 14.69 12.7498 14.72 12.1598 14.53C11.7998 14.42 11.3398 14.27 10.7498 14C8.2598 12.94 6.6398 10.44 6.4998 10.27C6.3898 10.1 5.4998 8.93 5.4998 7.71C5.4998 6.5 6.1498 5.89 6.3698 5.64Z" fill="white"/>
<path fill-rule="evenodd" clip-rule="evenodd" d="M0.629805 9.91C0.629805 4.45 5.0798 0 10.5398 0C13.1898 0 15.6798 1.03 17.5498 2.91C19.4198 4.78 20.4498 7.27 20.4498 9.92C20.4498 15.38 15.9998 19.83 10.5398 19.83C8.8798 19.83 7.2498 19.41 5.7998 18.62L0.549805 20L1.9498 14.86C1.0898 13.36 0.629805 11.66 0.629805 9.91ZM16.3698 4.09C14.8098 2.53 12.7498 1.67 10.5498 1.67C5.9998 1.67 2.3098 5.37 2.2998 9.91C2.2998 11.47 2.7398 13 3.5598 14.29L3.7598 14.61L2.9298 17.65L6.0498 16.83L6.3498 17C7.60981 17.76 9.0598 18.15 10.5398 18.15C15.0798 18.15 18.7798 14.46 18.7798 9.92C18.7798 7.72 17.9198 5.65 16.3698 4.09Z" fill="white"/>
</svg>
